<?xml version="1.0" encoding="UTF-8" standalone="no"?>
<svg
   version="1.1"
   x="0px"
   y="0px"
   width="64"
   height="64"
   viewBox="0 0 682.66688 682.66688"
   enable-background="new 0 0 512 512"
   xml:space="preserve"
   style="font-size:48px;overflow:hidden"
   id="svg14"
   xmlns="http://www.w3.org/2000/svg"
   xmlns:svg="http://www.w3.org/2000/svg"><defs
   id="defs18" />
<g
   id="图层_1"
   transform="matrix(1.2894879,0,0,1.2788828,11.938336,14.295515)">
	<path
   d="M 499.037,101.813 C 488.19,39.352 473.199,24.476 409.885,13.393 369.575,6.34 312.675,2.295 253.794,2.295 c -58.363,0 -112.338,3.801 -151.978,10.687 -62.468,10.855 -77.345,25.853 -88.405,89.152 -14.663,83.819 -14.884,224.882 -0.48,308.031 10.817,62.461 25.815,77.329 89.152,88.42 40.409,7.069 97.431,11.121 156.434,11.121 0.008,0 0,0 0.008,0 58.218,0 112.087,-3.778 151.665,-10.634 62.476,-10.862 77.36,-25.853 88.405,-89.167 14.671,-83.834 14.869,-224.928 0.442,-308.092 z M 483.24,407.222 c -9.918,56.763 -19.82,66.772 -75.715,76.492 -38.726,6.703 -91.635,10.39 -149,10.39 h -0.008 c -58.149,0 -114.181,-3.961 -153.745,-10.877 C 47.986,473.279 37.977,463.361 28.303,407.512 14.15,325.81 14.364,187.193 28.783,104.813 c 9.918,-56.748 19.82,-66.757 75.7,-76.461 38.794,-6.741 91.817,-10.458 149.312,-10.458 58.012,0 113.938,3.961 153.41,10.868 56.748,9.933 66.757,19.843 76.477,75.715 14.168,81.709 13.97,220.342 -0.442,302.745 z"
   fill="#1296db"
   id="path2" />
</g>
<g
   id="图层_4"
   transform="matrix(1.2894879,0,0,1.2788828,11.938336,14.295515)">
	<path
   d="m 218.014,220.002 c 13.568,-20.878 41.197,-30.232 65.013,-20.718 26.975,10.774 39.825,42.059 29.051,69.035 -1.181,2.969 -2.65,5.746 -4.294,8.38 21.501,10.886 48.684,21.357 77.718,24.326 4.597,0.463 9.178,0.734 13.743,0.846 l 0.91,-2.283 c 5.954,-14.908 -22.091,-35.707 -27.263,-39.378 0.974,-9.034 0.766,-18.037 -0.431,-26.848 5.491,-3.943 33.44,-24.932 27.151,-39.585 l -4.07,-7.502 c -8.268,-19.282 -46.082,-8.141 -46.082,-8.141 l 0.766,1.963 c -5.826,-7.566 -12.658,-14.43 -20.415,-20.367 0.91,-6.449 5.076,-40.894 -9.769,-46.816 l -6.688,-2.666 c -19.473,-7.805 -38.819,26.608 -38.819,26.608 l 1.756,0.766 c -9.737,-1.277 -19.457,-1.213 -28.955,0.032 -4.469,-6.48 -23.592,-32.61 -37.814,-26.513 l -9.481,4.086 c -19.011,8.157 -7.997,44.773 -7.694,45.779 -7.135,5.666 -13.647,12.211 -19.298,19.617 -8.364,-1.101 -40.24,-4.326 -45.906,9.896 l -1.564,3.911 c 4.932,0.08 9.896,0.335 14.876,0.83 29.099,3.002 56.33,13.76 77.559,24.742 z"
   fill="#1296db"
   id="path5" />
	<path
   d="m 238.222,231.462 c 14.222,8.827 22.841,15.802 23.049,15.978 0.223,0.192 9.848,7.997 25.651,17.622 1.357,-1.899 2.538,-3.974 3.448,-6.241 6.065,-15.18 -1.325,-32.418 -16.505,-38.484 -13.249,-5.299 -28.061,-0.319 -35.643,11.125 z"
   fill="#1296db"
   id="path7" />
	<path
   d="m 388.087,311.942 c -64.709,-6.64 -120.272,-51.716 -120.831,-52.163 -0.575,-0.463 -57.574,-46.736 -124.231,-53.568 -26.592,-2.729 -52.929,1.006 -75.053,6.496 l -4.134,7.614 c 22.602,-6.113 50.439,-10.678 78.548,-7.789 64.709,6.64 120.272,51.716 120.831,52.163 0.575,0.463 57.574,46.736 124.215,53.584 19.154,1.963 38.165,0.575 55.579,-2.41 l 3.911,-7.151 c -18.212,3.479 -38.467,5.315 -58.835,3.224 z"
   fill="#1296db"
   id="path9" />
	<path
   d="m 362.485,326.611 c -14.813,24.374 -46.369,33.137 -71.685,19.346 -0.75,-0.415 -1.468,-0.83 -2.187,-1.261 -4.374,-2.586 -10.056,-1.836 -13.504,1.947 -29.082,31.892 -75.899,39.729 -113.84,19.058 -45.3,-24.693 -62.076,-81.629 -37.399,-126.928 2.969,-5.459 6.449,-10.471 10.279,-15.068 -8.811,-0.782 -17.558,-0.862 -26.145,-0.399 -1.038,1.692 -2.043,3.416 -3.001,5.188 -30.358,55.706 -9.719,125.715 45.987,156.074 44.182,24.07 98.133,16.712 134.111,-17.43 35.643,16.409 78.548,2.554 97.591,-32.403 0.862,-1.596 1.66,-3.208 2.394,-4.836 -1.277,-0.096 -2.538,-0.176 -3.815,-0.303 -6.352,-0.671 -12.625,-1.692 -18.786,-2.985 z"
   fill="#1296db"
   id="path11" />
</g>
</svg>
