<svg version="1.1" xmlns="http://www.w3.org/2000/svg" xmlns:xlink="http://www.w3.org/1999/xlink" x="0px" y="0px" width="48" height="48" viewBox="0 0 512 512" enable-background="new 0 0 512 512" xml:space="preserve" style="width: 1em; height: 1em; vertical-align: middle; fill: currentcolor; overflow: hidden; font-size: 48px;">
<g id="图层_1">
	<path d="M499.037,101.813c-10.847-62.461-25.838-77.337-89.152-88.42c-40.31-7.053-97.21-11.098-156.091-11.098
		c-58.363,0-112.338,3.801-151.978,10.687c-62.468,10.855-77.345,25.853-88.405,89.152c-14.663,83.819-14.884,224.882-0.48,308.031
		c10.817,62.461,25.815,77.329,89.152,88.42c40.409,7.069,97.431,11.121,156.434,11.121c0.008,0,0,0,0.008,0
		c58.218,0,112.087-3.778,151.665-10.634c62.476-10.862,77.36-25.853,88.405-89.167
		C513.266,326.071,513.464,184.977,499.037,101.813z M483.24,407.222c-9.918,56.763-19.82,66.772-75.715,76.492
		c-38.726,6.703-91.635,10.39-149,10.39h-0.008c-58.149,0-114.181-3.961-153.745-10.877c-56.786-9.948-66.795-19.866-76.469-75.715
		c-14.153-81.702-13.939-220.319,0.48-302.699c9.918-56.748,19.82-66.757,75.7-76.461c38.794-6.741,91.817-10.458,149.312-10.458
		c58.012,0,113.938,3.961,153.41,10.868c56.748,9.933,66.757,19.843,76.477,75.715C497.85,186.186,497.652,324.819,483.24,407.222z" fill="#1296db"></path>
</g>
<g id="图层_4">
	<path d="M218.014,220.002c13.568-20.878,41.197-30.232,65.013-20.718c26.975,10.774,39.825,42.059,29.051,69.035
		c-1.181,2.969-2.65,5.746-4.294,8.38c21.501,10.886,48.684,21.357,77.718,24.326c4.597,0.463,9.178,0.734,13.743,0.846l0.91-2.283
		c5.954-14.908-22.091-35.707-27.263-39.378c0.974-9.034,0.766-18.037-0.431-26.848c5.491-3.943,33.44-24.932,27.151-39.585
		l-4.07-7.502c-8.268-19.282-46.082-8.141-46.082-8.141l0.766,1.963c-5.826-7.566-12.658-14.43-20.415-20.367
		c0.91-6.449,5.076-40.894-9.769-46.816l-6.688-2.666c-19.473-7.805-38.819,26.608-38.819,26.608l1.756,0.766
		c-9.737-1.277-19.457-1.213-28.955,0.032c-4.469-6.48-23.592-32.61-37.814-26.513l-9.481,4.086
		c-19.011,8.157-7.997,44.773-7.694,45.779c-7.135,5.666-13.647,12.211-19.298,19.617c-8.364-1.101-40.24-4.326-45.906,9.896
		l-1.564,3.911c4.932,0.08,9.896,0.335,14.876,0.83C169.554,198.262,196.785,209.02,218.014,220.002z" fill="#1296db"></path>
	<path d="M238.222,231.462c14.222,8.827,22.841,15.802,23.049,15.978c0.223,0.192,9.848,7.997,25.651,17.622
		c1.357-1.899,2.538-3.974,3.448-6.241c6.065-15.18-1.325-32.418-16.505-38.484C260.616,215.038,245.804,220.018,238.222,231.462z" fill="#1296db"></path>
	<path d="M388.087,311.942c-64.709-6.64-120.272-51.716-120.831-52.163c-0.575-0.463-57.574-46.736-124.231-53.568
		c-26.592-2.729-52.929,1.006-75.053,6.496l-4.134,7.614c22.602-6.113,50.439-10.678,78.548-7.789
		c64.709,6.64,120.272,51.716,120.831,52.163c0.575,0.463,57.574,46.736,124.215,53.584c19.154,1.963,38.165,0.575,55.579-2.41
		l3.911-7.151C428.71,312.197,408.455,314.033,388.087,311.942z" fill="#1296db"></path>
	<path d="M362.485,326.611c-14.813,24.374-46.369,33.137-71.685,19.346c-0.75-0.415-1.468-0.83-2.187-1.261
		c-4.374-2.586-10.056-1.836-13.504,1.947c-29.082,31.892-75.899,39.729-113.84,19.058c-45.3-24.693-62.076-81.629-37.399-126.928
		c2.969-5.459,6.449-10.471,10.279-15.068c-8.811-0.782-17.558-0.862-26.145-0.399c-1.038,1.692-2.043,3.416-3.001,5.188
		C74.645,284.2,95.284,354.209,150.99,384.568c44.182,24.07,98.133,16.712,134.111-17.43c35.643,16.409,78.548,2.554,97.591-32.403
		c0.862-1.596,1.66-3.208,2.394-4.836c-1.277-0.096-2.538-0.176-3.815-0.303C374.919,328.925,368.646,327.904,362.485,326.611z" fill="#1296db"></path>
</g>
</svg>